PathFileType	4	(X/Y/Z)	../Python\walking\Walking17\task.trc
DataRate	CameraRate	NumFrames	NumMarkers	Units	OrigDataRate	OrigDataStartFrame	OrigNumFrames
200.000000	200.000000	5	30	mm	200.000000	0	350
Frame#	Time	CLAV			STRN			RASI			LASI			PE01			RTH1			RTH2			RTH3			RTB3			RHEE			RD5M			RTOE			LTH2			LTH3			LTB2			LTB3			LHEE			LTOE			LD5M			RBAK			RTB2			C7			RTB1			LPSI			PE03			PE02			RPSI			T10			LTH1			LTB1			
		X1	Y1	Z1	X2	Y2	Z2	X3	Y3	Z3	X4	Y4	Z4	X5	Y5	Z5	X6	Y6	Z6	X7	Y7	Z7	X8	Y8	Z8	X9	Y9	Z9	X10	Y10	Z10	X11	Y11	Z11	X12	Y12	Z12	X13	Y13	Z13	X14	Y14	Z14	X15	Y15	Z15	X16	Y16	Z16	X17	Y17	Z17	X18	Y18	Z18	X19	Y19	Z19	X20	Y20	Z20	X21	Y21	Z21	X22	Y22	Z22	X23	Y23	Z23	X24	Y24	Z24	X25	Y25	Z25	X26	Y26	Z26	X27	Y27	Z27	X28	Y28	Z28	X29	Y29	Z29	X30	Y30	Z30	

1	0	-1423.9296875	1253.15185546875	172.1992187500001	-1365.768920898438	1070.029174804688	170.6144104003907	-1401.081665039063	868.8078002929692	289.2929077148439	-1396.892944335938	867.4113769531255	62.4689750671387	-1593.711669921876	947.2041625976567	190.5778961181641	-1372.444946289063	589.3140258789065	324.9171142578126	-1323.6826171875	527.6801757812502	310.4439086914064	-1322.214965820313	588.8763427734377	319.7305603027345	-1277.550048828125	235.0092010498048	292.0634765625001	-1346.854248046875	35.59629058837892	222.6568908691407	-1201.718994140625	40.16284561157228	295.6672363281251	-1170.412353515625	57.92308425903323	249.5210418701173	-1527.10791015625	555.0581665039065	53.10600662231448	-1450.813232421875	577.4599609375002	57.40650177001956	-1613.165893554688	206.2893981933595	89.04234313964847	-1569.268188476563	229.2920532226564	92.52092742919925	-1670.779541015626	33.49797439575197	154.2697296142579	-1477.241455078125	25.12350463867189	158.1848754882813	-1517.564819335938	13.08989524841309	106.0787353515626	-1595.203369140626	1250.011962890625	273.0098266601564	-1310.268798828125	268.927947998047	307.7166137695314	-1542.941162109376	1349.537475585938	173.9144134521485	-1270.451782226563	312.9512329101564	300.086395263672	-1598.402587890626	913.380737304688	146.1803436279297	-1610.442749023438	888.9210815429692	161.6515045166016	-1610.634155273438	886.6260375976567	212.3204193115236	-1597.029663085938	910.0610961914067	234.6515197753907	-1577.199584960938	1050.24365234375	178.3788452148438	-1491.624389648438	604.263122558594	40.10713577270509	-1596.299804687501	283.2282104492189	74.39601135253909	
2	0.005	-1417.520874023438	1251.654418945313	172.2074737548829	-1359.396850585938	1068.455932617188	170.4607696533204	-1394.259033203125	867.2887573242192	289.1134643554689	-1390.527099609375	866.0681152343755	62.26734542846683	-1587.031250000001	945.7509155273442	191.0678863525391	-1365.771850585938	587.6169433593752	324.6175537109376	-1316.976318359375	526.0601806640627	309.8589782714845	-1315.5185546875	587.2077636718752	319.2449340820314	-1262.864501953125	234.6530761718751	291.6634521484376	-1324.882446289063	33.06362152099611	222.2472381591798	-1179.8828125	41.92399978637697	295.2047729492189	-1149.220825195313	60.78164291381839	249.0112609863282	-1523.5556640625	554.5979614257815	52.92098617553714	-1447.07080078125	576.407653808594	56.79896926879886	-1612.024169921876	206.407196044922	88.90100860595706	-1567.997558593751	229.1361389160157	92.21502685546878	-1670.768798828126	33.7505226135254	154.2881774902344	-1477.228271484375	25.10609436035158	158.1608581542969	-1517.561279296875	13.08907508850098	106.0479431152344	-1589.112182617188	1248.56103515625	272.516082763672	-1296.786254882813	267.4065856933595	307.0957031250001	-1536.527343750001	1348.14453125	173.7904510498047	-1258.4970703125	312.846405029297	299.5857238769532	-1592.025634765626	912.042358398438	146.6256713867188	-1604.028686523438	887.595581054688	162.0696105957032	-1604.078735351563	885.1945190429692	212.7326660156251	-1590.422363281251	908.4705200195317	234.9739685058595	-1570.823852539063	1048.809936523438	178.5268249511719	-1487.760620117188	603.5486450195315	39.8190040588379	-1594.622558593751	283.2375488281251	74.2175216674805	
3	0.01	-1411.083618164063	1250.09326171875	172.2108917236329	-1353.000366210938	1066.8154296875	170.3123474121094	-1387.413818359375	865.705200195313	288.9426574707032	-1384.164184570313	864.697875976563	62.06879043579104	-1580.325195312501	944.2357788085942	191.5977478027344	-1359.197387695313	585.7603759765627	324.3760070800782	-1310.405517578125	524.243835449219	309.3418273925782	-1308.9189453125	585.3372192382815	318.8685913085939	-1248.447998046875	234.4375762939454	291.283905029297	-1303.1630859375	30.97856330871583	221.8080291748048	-1158.45068359375	43.98712158203126	294.7950134277345	-1128.428466796875	63.9194259643555	248.5877075195314	-1519.944580078125	554.1123046875002	52.76824569702151	-1443.280883789063	575.3522949218752	56.13241195678714	-1610.826538085938	206.5400543212892	88.774772644043	-1566.666870117188	228.9796752929689	91.9147644042969	-1670.751464843751	34.03860092163087	154.3151092529297	-1477.21875	25.09044647216798	158.1456604003907	-1517.560546875	13.07890510559083	106.0281677246094	-1582.993041992188	1247.065063476563	272.0273437500001	-1283.537231445313	265.9975891113282	306.4619750976564	-1530.08984375	1346.697631835938	173.6628112792969	-1246.776123046875	312.7878417968751	299.0971679687501	-1585.634033203126	910.648315429688	147.1095428466797	-1597.598999023438	886.2126464843755	162.5244903564454	-1597.499389648438	883.6989135742192	213.1807403564454	-1583.791625976563	906.8099975585942	235.3249816894532	-1564.434692382813	1047.326538085938	178.7042083740235	-1483.873413085938	602.8179931640627	39.5287551879883	-1592.864990234376	283.2516174316407	74.05693054199222	
4	0.015	-1404.616455078125	1248.474365234375	172.2114562988282	-1346.578247070313	1065.114379882813	170.1703643798829	-1380.545776367188	864.0664672851567	288.7764892578126	-1377.806396484375	863.305786132813	61.86897277832034	-1573.592895507813	942.6644897460942	192.1660308837892	-1352.7197265625	583.758483886719	324.1838378906251	-1303.96875	522.2460937500002	308.8841857910157	-1302.415283203125	583.2791137695315	318.607879638672	-1234.319702148438	234.3586883544923	290.9302062988282	-1281.755981445313	29.33024215698244	221.3481597900392	-1137.468383789063	46.32743453979494	294.4509582519532	-1108.071899414063	67.30970001220706	248.2671508789064	-1516.271118164063	553.6048583984377	52.64569854736331	-1439.441650390625	574.2979736328127	55.4189147949219	-1609.573852539063	206.6914978027345	88.66297149658206	-1565.276367187501	228.8255004882814	91.62210845947268	-1670.726562500001	34.36803436279298	154.3495635986329	-1477.212646484375	25.07701873779298	158.1377868652344	-1517.563720703125	13.05909729003907	106.0200347900391	-1576.844238281251	1245.529052734375	271.5447998046876	-1270.538452148438	264.7046508789064	305.8191223144532	-1523.627075195313	1345.202758789063	173.5329742431641	-1235.296264648438	312.7752685546876	298.6253967285157	-1579.226440429688	909.203491210938	147.6312255859376	-1591.152709960938	884.7769165039067	163.0172424316407	-1590.893920898438	882.1452026367192	213.6657867431642	-1577.135864257813	905.0867309570317	235.7046661376954	-1558.030517578126	1045.79931640625	178.9074096679688	-1479.957763671875	602.0745239257815	39.2376174926758	-1591.029174804688	283.2733764648439	73.91384887695315	
5	0.02	-1398.117797851563	1246.804443359375	172.2111968994141	-1340.129028320313	1063.3603515625	170.0359497070313	-1373.654052734375	862.3823242187505	288.6111755371095	-1371.455322265625	861.8967285156255	61.66361618041995	-1566.833496093751	941.0436401367192	192.7709960937501	-1346.334838867188	581.6285400390627	324.0305786132814	-1297.661254882813	520.0867919921877	308.4750366210939	-1296.005004882813	581.0527954101565	318.464080810547	-1220.496459960938	234.4087829589845	290.605926513672	-1260.723388671875	28.0997714996338	220.8756256103517	-1116.98193359375	48.91198730468753	294.1828918457032	-1088.188842773438	70.91690826416018	248.0625305175782	-1512.532470703125	553.080017089844	52.55029678344729	-1435.552368164063	573.2485961914065	54.67095184326175	-1608.267578125001	206.8653259277345	88.56438446044925	-1563.827148437501	228.6768646240236	91.33863830566409	-1670.693237304688	34.74492645263673	154.3901977539063	-1477.209228515625	25.06589317321779	158.1353912353516	-1517.571411132813	13.02965259552003	106.0237045288087	-1570.663818359376	1243.958251953125	271.0695800781251	-1257.804321289063	263.5289611816407	305.1712036132814	-1517.13720703125	1343.66552734375	173.4024658203126	-1224.06201171875	312.8061828613282	298.1740112304689	-1572.801635742188	907.7133178710942	148.1897277832032	-1584.688476562501	883.2935180664067	163.5486755371094	-1584.259765625001	880.5401000976567	214.1886596679689	-1570.453002929688	903.308471679688	236.1128845214845	-1551.609375000001	1044.234252929688	179.1327362060547	-1476.007934570313	601.3218994140627	38.94659423828126	-1589.118041992188	283.3063049316407	73.78731536865237	
